Input #0, mov,mp4,m4a,3gp,3g2,mj2, from '/home/hbattu/projects/huberman-gpt/huberman-audio/mp3/tmp9g9flnqi.mp4':
  Metadata:
    major_brand     : dash
    minor_version   : 0
    compatible_brands: iso6mp41
    creation_time   : 2023-01-07T22:45:48.000000Z
  Duration: 03:03:41.51, start: 0.000000, bitrate: 129 kb/s
    Stream #0:0(eng): Audio: aac (LC) (mp4a / 0x6134706D), 44100 Hz, stereo, fltp, 0 kb/s (default)
    Metadata:
      creation_time   : 2023-01-07T22:45:48.000000Z
      handler_name    : ISO Media file produced by Google Inc.
Stream mapping:
  Stream #0:0 -> #0:0 (aac (native) -> mp3 (libmp3lame))
Press [q] to stop, [?] for help
[graph_0_in_0_0 @ 0x55fb191cd2c0] tb:1/44100 samplefmt:fltp samplerate:44100 chlayout:0x3
Output #0, mp3, to '../huberman-audio/mp3/xjEFo3a1AnI.mp3':
  Metadata:
    major_brand     : dash
    minor_version   : 0
    compatible_brands: iso6mp41
    TSSE            : Lavf58.29.100
    Stream #0:0(eng): Audio: mp3 (libmp3lame), 44100 Hz, stereo, fltp, delay 1105 (default)
    Metadata:
      creation_time   : 2023-01-07T22:45:48.000000Z
      handler_name    : ISO Media file produced by Google Inc.
      encoder         : Lavc58.54.100 libmp3lame
No more output streams to write to, finishing.
size=  172212kB time=03:03:41.53 bitrate= 128.0kbits/s speed=91.8x    
[AVIOContext @ 0x55fb190b4900] Statistics: 0 seeks, 240 writeouts
video:0kB audio:172212kB subtitle:0kB other streams:0kB global headers:0kB muxing overhead: 0.000196%
Input file #0 (/home/hbattu/projects/huberman-gpt/huberman-audio/mp3/tmp9g9flnqi.mp4):
  Input stream #0:0 (audio): 474657 packets read (176344224 bytes); 474657 frames decoded (486048768 samples); 
  Total: 474657 packets (176344224 bytes) demuxed
Output file #0 (../huberman-audio/mp3/xjEFo3a1AnI.mp3):
  Output stream #0:0 (audio): 421918 frames encoded (486048768 samples); 421919 packets muxed (176344920 bytes); 
  Total: 421919 packets (176344920 bytes) muxed
[AVIOContext @ 0x55fb190e58c0] Statistics: 2 seeks, 674 writeouts
[AVIOContext @ 0x55fb190bd880] Statistics: 178371580 bytes read, 0 seeks
